<?xml version="1.0" encoding="UTF-8"?>
<svg xmlns="http://www.w3.org/2000/svg" version="1.1" xmlns:xlink="http://www.w3.org/1999/xlink" viewBox="0 0 1080 1080">
  <defs>
    <style>
      .cls-1 {
        fill: #020817;
      }

      .cls-2 {
        fill: #00ffa6;
        filter: url(#outer-glow-1);
      }
    </style>
    <filter id="outer-glow-1" filterUnits="userSpaceOnUse">
      <feOffset dx="0" dy="0"/>
      <feGaussianBlur result="blur" stdDeviation="16"/>
      <feFlood flood-color="#00ffa6" flood-opacity=".65"/>
      <feComposite in2="blur" operator="in"/>
      <feComposite in="SourceGraphic"/>
    </filter>
  </defs>
  <!-- Generator: Adobe Illustrator 28.6.0, SVG Export Plug-In . SVG Version: 1.2.0 Build 709)  -->
  <g>
    <g id="Layer_1">
      <g>
        <rect class="cls-1" y=".49" width="1080" height="1079.01" rx="55.66" ry="55.66"/>
        <path class="cls-2" d="M660.41,621.09h198.65c22.63,0,40.98-18.35,40.98-40.98v-140.02c0-22.63-18.35-40.98-40.98-40.98h-198.65c-9.77,0-19.39.51-28.85,1.52.82-8.5,1.23-17.13,1.23-25.88v-198.97c0-22.63-18.35-40.98-40.98-40.98h-140.01c-22.63,0-40.98,18.35-40.98,40.98v198.97c0,8.31-2.54,14.4-8.5,20.36-5.96,5.96-12.15,8.5-20.68,8.5h-198.65c-22.63,0-40.98,18.35-40.98,40.98v140.02c0,22.63,18.35,40.98,40.98,40.98h198.65c9.77,0,19.39-.51,28.85-1.52-.82,8.5-1.23,17.13-1.23,25.89,0,68.88,24.74,128.54,73.52,177.33,48.79,48.78,108.55,73.52,177.65,73.52h198.65c22.63,0,40.98-18.35,40.98-40.98v-140.02c0-22.63-18.35-40.98-40.98-40.98h-198.65c-8.54,0-14.73-2.54-20.68-8.5-5.97-5.96-8.51-12.05-8.51-20.37s2.54-14.41,8.51-20.37c5.95-5.95,12.14-8.5,20.68-8.5Z"/>
        <path class="cls-1" d="M660.41,580.11h198.65v-140.02h-198.65c-30.7,0-58.98,5.78-84.9,17.23,10.84-25.3,16.3-52.81,16.3-82.57v-198.97h-140.01v198.97c0,19.22-6.84,35.67-20.51,49.34-13.67,13.67-30.23,20.5-49.66,20.5h-198.65v140.02h198.65c30.69,0,58.98-5.78,84.9-17.23-10.84,25.3-16.3,52.81-16.3,82.58,0,57.89,20.5,107.33,61.52,148.35,41.01,41.01,90.56,61.51,148.67,61.51h198.65v-140.02h-198.65c-19.44,0-35.99-6.83-49.66-20.5-13.67-13.67-20.51-30.12-20.51-49.34s6.83-35.67,20.51-49.35c13.67-13.67,30.22-20.5,49.66-20.5Z"/>
      </g>
    </g>
  </g>
</svg>