<svg width="163" height="163" viewBox="0 0 163 163" fill="none" xmlns="http://www.w3.org/2000/svg">
<g filter="url(#filter0_b_6_3)">
<g filter="url(#filter1_b_6_3)">
<rect x="4" y="4" width="155" height="155" rx="77.5" fill="#04FC85" fill-opacity="0.08"/>
<rect x="2" y="2" width="159" height="159" rx="79.5" stroke="url(#paint0_linear_6_3)" stroke-width="4"/>
</g>
<g filter="url(#filter2_b_6_3)">
<rect x="14.3333" y="14.3333" width="134.333" height="134.333" rx="67.1667" fill="#04FC85" fill-opacity="0.08"/>
<rect x="12.3333" y="12.3333" width="138.333" height="138.333" rx="69.1667" stroke="url(#paint1_linear_6_3)" stroke-width="4"/>
</g>
</g>
<mask id="path-5-outside-1_6_3" maskUnits="userSpaceOnUse" x="40" y="54" width="82" height="53" fill="black">
<rect fill="white" x="40" y="54" width="82" height="53"/>
<path d="M64.9676 63.0909H73.2858V87.2273C73.2744 89.4886 72.7347 91.4659 71.6665 93.1591C70.5983 94.8409 69.121 96.1477 67.2347 97.0795C65.3597 98.0114 63.1892 98.4773 60.7233 98.4773C58.5415 98.4773 56.5585 98.0966 54.7744 97.3352C53.0017 96.5739 51.5869 95.392 50.5301 93.7898C49.4847 92.1875 48.9676 90.1364 48.979 87.6364H57.3824C57.4165 88.5341 57.5869 89.3011 57.8937 89.9375C58.2119 90.5625 58.6494 91.0341 59.2062 91.3523C59.7631 91.6705 60.4278 91.8295 61.2006 91.8295C62.0074 91.8295 62.6892 91.6591 63.246 91.3182C63.8028 90.9659 64.2233 90.4489 64.5074 89.767C64.8028 89.0852 64.9562 88.2386 64.9676 87.2273V63.0909ZM112.67 75.7386H104.147C104.034 74.8636 103.801 74.0739 103.449 73.3693C103.096 72.6648 102.63 72.0625 102.051 71.5625C101.471 71.0625 100.784 70.6818 99.9884 70.4205C99.2043 70.1477 98.3349 70.0114 97.3804 70.0114C95.6872 70.0114 94.227 70.4261 92.9997 71.2557C91.7838 72.0852 90.8463 73.2841 90.1872 74.8523C89.5395 76.4205 89.2156 78.3182 89.2156 80.5455C89.2156 82.8636 89.5452 84.8068 90.2043 86.375C90.8747 87.9318 91.8122 89.108 93.0168 89.9034C94.2327 90.6875 95.6702 91.0795 97.3293 91.0795C98.2611 91.0795 99.1077 90.9602 99.869 90.7216C100.642 90.483 101.318 90.1364 101.897 89.6818C102.488 89.2159 102.971 88.6534 103.346 87.9943C103.733 87.3239 104 86.5682 104.147 85.7273L112.67 85.7784C112.522 87.3239 112.074 88.8466 111.324 90.3466C110.585 91.8466 109.568 93.2159 108.272 94.4545C106.977 95.6818 105.397 96.6591 103.534 97.3864C101.682 98.1136 99.5565 98.4773 97.1588 98.4773C93.9997 98.4773 91.1702 97.7841 88.6702 96.3977C86.1815 95 84.2156 92.9659 82.7724 90.2955C81.3293 87.625 80.6077 84.375 80.6077 80.5455C80.6077 76.7045 81.3406 73.4489 82.8065 70.7784C84.2724 68.108 86.2554 66.0795 88.7554 64.6932C91.2554 63.3068 94.0565 62.6136 97.1588 62.6136C99.2724 62.6136 101.227 62.9091 103.022 63.5C104.818 64.0795 106.397 64.9318 107.761 66.0568C109.125 67.1705 110.233 68.5398 111.085 70.1648C111.937 71.7898 112.466 73.6477 112.67 75.7386Z"/>
</mask>
<path d="M64.9676 63.0909H73.2858V87.2273C73.2744 89.4886 72.7347 91.4659 71.6665 93.1591C70.5983 94.8409 69.121 96.1477 67.2347 97.0795C65.3597 98.0114 63.1892 98.4773 60.7233 98.4773C58.5415 98.4773 56.5585 98.0966 54.7744 97.3352C53.0017 96.5739 51.5869 95.392 50.5301 93.7898C49.4847 92.1875 48.9676 90.1364 48.979 87.6364H57.3824C57.4165 88.5341 57.5869 89.3011 57.8937 89.9375C58.2119 90.5625 58.6494 91.0341 59.2062 91.3523C59.7631 91.6705 60.4278 91.8295 61.2006 91.8295C62.0074 91.8295 62.6892 91.6591 63.246 91.3182C63.8028 90.9659 64.2233 90.4489 64.5074 89.767C64.8028 89.0852 64.9562 88.2386 64.9676 87.2273V63.0909ZM112.67 75.7386H104.147C104.034 74.8636 103.801 74.0739 103.449 73.3693C103.096 72.6648 102.63 72.0625 102.051 71.5625C101.471 71.0625 100.784 70.6818 99.9884 70.4205C99.2043 70.1477 98.3349 70.0114 97.3804 70.0114C95.6872 70.0114 94.227 70.4261 92.9997 71.2557C91.7838 72.0852 90.8463 73.2841 90.1872 74.8523C89.5395 76.4205 89.2156 78.3182 89.2156 80.5455C89.2156 82.8636 89.5452 84.8068 90.2043 86.375C90.8747 87.9318 91.8122 89.108 93.0168 89.9034C94.2327 90.6875 95.6702 91.0795 97.3293 91.0795C98.2611 91.0795 99.1077 90.9602 99.869 90.7216C100.642 90.483 101.318 90.1364 101.897 89.6818C102.488 89.2159 102.971 88.6534 103.346 87.9943C103.733 87.3239 104 86.5682 104.147 85.7273L112.67 85.7784C112.522 87.3239 112.074 88.8466 111.324 90.3466C110.585 91.8466 109.568 93.2159 108.272 94.4545C106.977 95.6818 105.397 96.6591 103.534 97.3864C101.682 98.1136 99.5565 98.4773 97.1588 98.4773C93.9997 98.4773 91.1702 97.7841 88.6702 96.3977C86.1815 95 84.2156 92.9659 82.7724 90.2955C81.3293 87.625 80.6077 84.375 80.6077 80.5455C80.6077 76.7045 81.3406 73.4489 82.8065 70.7784C84.2724 68.108 86.2554 66.0795 88.7554 64.6932C91.2554 63.3068 94.0565 62.6136 97.1588 62.6136C99.2724 62.6136 101.227 62.9091 103.022 63.5C104.818 64.0795 106.397 64.9318 107.761 66.0568C109.125 67.1705 110.233 68.5398 111.085 70.1648C111.937 71.7898 112.466 73.6477 112.67 75.7386Z" fill="white"/>
<path d="M64.9676 63.0909V55.0909H56.9676V63.0909H64.9676ZM73.2858 63.0909H81.2858V55.0909H73.2858V63.0909ZM73.2858 87.2273L81.2857 87.2675L81.2858 87.2474V87.2273H73.2858ZM71.6665 93.1591L78.4195 97.4482L78.4261 97.4379L78.4325 97.4276L71.6665 93.1591ZM67.2347 97.0795L63.6916 89.9069L63.6829 89.9112L63.6743 89.9155L67.2347 97.0795ZM54.7744 97.3352L51.6174 104.686L51.6259 104.69L51.6344 104.693L54.7744 97.3352ZM50.5301 93.7898L43.8302 98.1614L43.841 98.178L43.8519 98.1945L50.5301 93.7898ZM48.979 87.6364V79.6364H41.0153L40.9791 87.6L48.979 87.6364ZM57.3824 87.6364L65.3766 87.3328L65.0844 79.6364H57.3824V87.6364ZM57.8937 89.9375L50.6876 93.4119L50.7252 93.4898L50.7644 93.567L57.8937 89.9375ZM59.2062 91.3523L63.1754 84.4063L63.1754 84.4063L59.2062 91.3523ZM63.246 91.3182L67.4233 98.141L67.4734 98.1103L67.5232 98.0788L63.246 91.3182ZM64.5074 89.767L57.1669 86.5862L57.1445 86.638L57.1228 86.6901L64.5074 89.767ZM64.9676 87.2273L72.9671 87.3171L72.9676 87.2722V87.2273H64.9676ZM64.9676 71.0909H73.2858V55.0909H64.9676V71.0909ZM65.2858 63.0909V87.2273H81.2858V63.0909H65.2858ZM65.2859 87.1871C65.2811 88.1505 65.0698 88.6221 64.9004 88.8906L78.4325 97.4276C80.3996 94.3097 81.2678 90.8268 81.2857 87.2675L65.2859 87.1871ZM64.9134 88.87C64.6756 89.2444 64.3408 89.5862 63.6916 89.9069L70.7778 104.252C73.9012 102.709 76.521 100.437 78.4195 97.4482L64.9134 88.87ZM63.6743 89.9155C63.0859 90.2079 62.1723 90.4773 60.7233 90.4773V106.477C64.2061 106.477 67.6334 105.815 70.795 104.244L63.6743 89.9155ZM60.7233 90.4773C59.4862 90.4773 58.5892 90.2652 57.9145 89.9772L51.6344 104.693C54.5278 105.928 57.5968 106.477 60.7233 106.477V90.4773ZM57.9315 89.9845C57.5872 89.8366 57.3997 89.6752 57.2083 89.385L43.8519 98.1945C45.7742 101.109 48.4162 103.311 51.6174 104.686L57.9315 89.9845ZM57.2301 89.4182C57.266 89.4733 56.9725 89.0811 56.9789 87.6727L40.9791 87.6C40.9627 91.1917 41.7033 94.9017 43.8302 98.1614L57.2301 89.4182ZM48.979 95.6364H57.3824V79.6364H48.979V95.6364ZM49.3881 87.9399C49.4531 89.6498 49.7918 91.5539 50.6876 93.4119L65.0999 86.4631C65.3821 87.0483 65.3799 87.4184 65.3766 87.3328L49.3881 87.9399ZM50.7644 93.567C51.7213 95.4464 53.1999 97.1341 55.2371 98.2982L63.1754 84.4063C64.0989 84.9341 64.7026 85.6786 65.0231 86.308L50.7644 93.567ZM55.2371 98.2982C57.2282 99.4359 59.3206 99.8295 61.2006 99.8295V83.8295C61.5351 83.8295 62.298 83.905 63.1754 84.4063L55.2371 98.2982ZM61.2006 99.8295C63.1351 99.8295 65.3431 99.4145 67.4233 98.141L59.0688 84.4954C60.0353 83.9037 60.8796 83.8295 61.2006 83.8295V99.8295ZM67.5232 98.0788C69.6353 96.7425 71.0551 94.8525 71.892 92.844L57.1228 86.6901C57.3915 86.0452 57.9704 85.1893 58.9689 84.5576L67.5232 98.0788ZM71.8478 92.9479C72.6894 91.0058 72.9478 89.0316 72.9671 87.3171L56.9681 87.1374C56.9666 87.2704 56.9565 87.2809 56.9722 87.1943C56.9881 87.1068 57.0362 86.8879 57.1669 86.5862L71.8478 92.9479ZM72.9676 87.2273V63.0909H56.9676V87.2273H72.9676ZM112.67 75.7386V83.7386H121.491L120.632 74.9597L112.67 75.7386ZM104.147 75.7386L96.2141 76.7689L97.1192 83.7386H104.147V75.7386ZM103.449 73.3693L96.2932 76.947L96.2932 76.947L103.449 73.3693ZM102.051 71.5625L107.277 65.5052L107.277 65.5052L102.051 71.5625ZM99.9884 70.4205L97.3602 77.9764L97.4255 77.9991L97.4911 78.0207L99.9884 70.4205ZM92.9997 71.2557L88.5197 64.6277L88.5054 64.6374L88.4911 64.6472L92.9997 71.2557ZM90.1872 74.8523L82.8121 71.7526L82.8026 71.7754L82.7931 71.7982L90.1872 74.8523ZM90.2043 86.375L82.8292 89.4747L82.8428 89.507L82.8567 89.5393L90.2043 86.375ZM93.0168 89.9034L88.6083 96.5791L88.6446 96.6031L88.6812 96.6267L93.0168 89.9034ZM99.869 90.7216L97.5085 83.0778L97.4924 83.0828L97.4763 83.0878L99.869 90.7216ZM101.897 89.6818L106.835 95.9766L106.843 95.9703L106.851 95.964L101.897 89.6818ZM103.346 87.9943L96.4149 83.9999L96.4039 84.019L96.393 84.0381L103.346 87.9943ZM104.147 85.7273L104.195 77.7274L97.4374 77.6869L96.2681 84.3431L104.147 85.7273ZM112.67 85.7784L120.634 86.5396L121.466 77.831L112.718 77.7786L112.67 85.7784ZM111.324 90.3466L104.168 86.7689L104.157 86.7906L104.147 86.8124L111.324 90.3466ZM108.272 94.4545L113.774 100.262L113.788 100.25L113.801 100.237L108.272 94.4545ZM103.534 97.3864L100.625 89.9337L100.618 89.9368L100.61 89.9398L103.534 97.3864ZM88.6702 96.3977L84.7526 103.373L84.7715 103.383L84.7904 103.394L88.6702 96.3977ZM82.7724 90.2955L89.8104 86.4919L82.7724 90.2955ZM82.8065 70.7784L75.7937 66.9288L75.7937 66.9288L82.8065 70.7784ZM103.022 63.5L100.521 71.099L100.543 71.1062L100.565 71.1132L103.022 63.5ZM107.761 66.0568L102.67 72.2278L102.685 72.2405L102.701 72.2531L107.761 66.0568ZM112.67 67.7386H104.147V83.7386H112.67V67.7386ZM112.081 74.7083C111.866 73.0522 111.401 71.3858 110.604 69.7916L96.2932 76.947C96.249 76.8587 96.2253 76.7906 96.2143 76.7534C96.2037 76.7172 96.2076 76.7192 96.2141 76.7689L112.081 74.7083ZM110.604 69.7916C109.793 68.1693 108.681 66.7164 107.277 65.5052L96.825 77.6198C96.5803 77.4086 96.3998 77.1603 96.2932 76.947L110.604 69.7916ZM107.277 65.5052C105.826 64.2538 104.189 63.3798 102.486 62.8202L97.4911 78.0207C97.3788 77.9838 97.1165 77.8712 96.825 77.6198L107.277 65.5052ZM102.617 62.8645C100.871 62.2574 99.0979 62.0114 97.3804 62.0114V78.0114C97.4771 78.0114 97.5168 78.0183 97.5086 78.017C97.5043 78.0163 97.4886 78.0137 97.4629 78.0073C97.437 78.0009 97.4023 77.9911 97.3602 77.9764L102.617 62.8645ZM97.3804 62.0114C94.326 62.0114 91.2525 62.7806 88.5197 64.6277L97.4797 77.8836C97.4313 77.9164 97.3785 77.9462 97.3251 77.9709C97.2718 77.9956 97.2287 78.0102 97.2012 78.018C97.1437 78.0344 97.1889 78.0114 97.3804 78.0114V62.0114ZM88.4911 64.6472C85.8128 66.4744 83.9734 68.9895 82.8121 71.7526L97.5623 77.9519C97.6487 77.7465 97.703 77.6841 97.6866 77.705C97.679 77.7148 97.6589 77.7387 97.6253 77.7704C97.5914 77.8023 97.5516 77.8346 97.5083 77.8642L88.4911 64.6472ZM82.7931 71.7982C81.6416 74.5862 81.2156 77.5816 81.2156 80.5455H97.2156C97.2156 79.0547 97.4374 78.2547 97.5813 77.9064L82.7931 71.7982ZM81.2156 80.5455C81.2156 83.5656 81.6372 86.6386 82.8292 89.4747L97.5794 83.2753C97.4532 82.975 97.2156 82.1616 97.2156 80.5455H81.2156ZM82.8567 89.5393C84.0341 92.2735 85.8894 94.7836 88.6083 96.5791L97.4253 83.2277C97.4841 83.2666 97.5369 83.3084 97.5812 83.3492C97.6253 83.3898 97.653 83.4219 97.666 83.4382C97.6926 83.4716 97.6408 83.4173 97.5519 83.2107L82.8567 89.5393ZM88.6812 96.6267C91.3712 98.3614 94.3637 99.0795 97.3293 99.0795V83.0795C97.1313 83.0795 97.0719 83.0565 97.1118 83.0674C97.1306 83.0725 97.1658 83.0837 97.2121 83.1043C97.2586 83.1249 97.3065 83.1506 97.3523 83.1801L88.6812 96.6267ZM97.3293 99.0795C98.9398 99.0795 100.609 98.8735 102.262 98.3554L97.4763 83.0878C97.6066 83.0469 97.5824 83.0795 97.3293 83.0795V99.0795ZM102.23 98.3654C103.845 97.8666 105.414 97.091 106.835 95.9766L96.9603 83.387C97.222 83.1818 97.4387 83.0993 97.5085 83.0778L102.23 98.3654ZM106.851 95.964C108.258 94.854 109.418 93.4996 110.3 91.9505L96.393 84.0381C96.5244 83.8072 96.7182 83.5778 96.9442 83.3997L106.851 95.964ZM110.278 91.9887C111.176 90.4308 111.734 88.7764 112.027 87.1115L96.2681 84.3431C96.2651 84.3599 96.2898 84.2169 96.4149 83.9999L110.278 91.9887ZM104.099 93.7271L112.622 93.7783L112.718 77.7786L104.195 77.7274L104.099 93.7271ZM104.706 85.0172C104.66 85.506 104.513 86.0789 104.168 86.7689L118.479 93.9243C119.634 91.6143 120.385 89.1418 120.634 86.5396L104.706 85.0172ZM104.147 86.8124C103.85 87.4137 103.411 88.034 102.744 88.6723L113.801 100.237C115.724 98.3978 117.319 96.2795 118.501 93.8807L104.147 86.8124ZM102.77 88.6469C102.311 89.0824 101.643 89.5368 100.625 89.9337L106.442 104.839C109.152 103.781 111.643 102.281 113.774 100.262L102.77 88.6469ZM100.61 89.9398C99.8586 90.2348 98.7557 90.4773 97.1588 90.4773V106.477C100.357 106.477 103.504 105.992 106.458 104.833L100.61 89.9398ZM97.1588 90.4773C95.2113 90.4773 93.7414 90.0622 92.5499 89.4015L84.7904 103.394C88.5989 105.506 92.7881 106.477 97.1588 106.477V90.4773ZM92.5877 89.4226C91.5031 88.8134 90.582 87.9197 89.8104 86.4919L75.7345 94.099C77.8492 98.0121 80.86 101.187 84.7526 103.373L92.5877 89.4226ZM89.8104 86.4919C89.1428 85.2565 88.6077 83.3873 88.6077 80.5455H72.6077C72.6077 85.3627 73.5157 89.9935 75.7345 94.099L89.8104 86.4919ZM88.6077 80.5455C88.6077 77.706 89.1488 75.8498 89.8194 74.628L75.7937 66.9288C73.5325 71.048 72.6077 75.7031 72.6077 80.5455H88.6077ZM89.8194 74.628C90.6086 73.1903 91.5432 72.2949 92.6351 71.6894L84.8757 57.6969C80.9675 59.8641 77.9363 63.0256 75.7937 66.9288L89.8194 74.628ZM92.6351 71.6894C93.8482 71.0167 95.2951 70.6136 97.1588 70.6136V54.6136C92.8179 54.6136 88.6626 55.5969 84.8757 57.6969L92.6351 71.6894ZM97.1588 70.6136C98.5221 70.6136 99.6224 70.8031 100.521 71.099L105.523 55.901C102.832 55.0151 100.023 54.6136 97.1588 54.6136V70.6136ZM100.565 71.1132C101.465 71.4036 102.137 71.7877 102.67 72.2278L112.852 59.8858C110.658 58.0759 108.171 56.7555 105.48 55.8868L100.565 71.1132ZM102.701 72.2531C103.194 72.656 103.627 73.1692 104 73.8805L118.17 66.449C116.838 63.9103 115.055 61.6849 112.821 59.8606L102.701 72.2531ZM104 73.8805C104.309 74.4696 104.59 75.3055 104.708 76.5175L120.632 74.9597C120.342 71.9899 119.565 69.1099 118.17 66.449L104 73.8805Z" fill="black" mask="url(#path-5-outside-1_6_3)"/>
<defs>
<filter id="filter0_b_6_3" x="-4" y="-4" width="171" height="171" filterUnits="userSpaceOnUse" color-interpolation-filters="sRGB">
<feFlood flood-opacity="0" result="BackgroundImageFix"/>
<feGaussianBlur in="BackgroundImageFix" stdDeviation="2"/>
<feComposite in2="SourceAlpha" operator="in" result="effect1_backgroundBlur_6_3"/>
<feBlend mode="normal" in="SourceGraphic" in2="effect1_backgroundBlur_6_3" result="shape"/>
</filter>
<filter id="filter1_b_6_3" x="-4" y="-4" width="171" height="171" filterUnits="userSpaceOnUse" color-interpolation-filters="sRGB">
<feFlood flood-opacity="0" result="BackgroundImageFix"/>
<feGaussianBlur in="BackgroundImageFix" stdDeviation="2"/>
<feComposite in2="SourceAlpha" operator="in" result="effect1_backgroundBlur_6_3"/>
<feBlend mode="normal" in="SourceGraphic" in2="effect1_backgroundBlur_6_3" result="shape"/>
</filter>
<filter id="filter2_b_6_3" x="6.33333" y="6.33333" width="150.333" height="150.333" filterUnits="userSpaceOnUse" color-interpolation-filters="sRGB">
<feFlood flood-opacity="0" result="BackgroundImageFix"/>
<feGaussianBlur in="BackgroundImageFix" stdDeviation="2"/>
<feComposite in2="SourceAlpha" operator="in" result="effect1_backgroundBlur_6_3"/>
<feBlend mode="normal" in="SourceGraphic" in2="effect1_backgroundBlur_6_3" result="shape"/>
</filter>
<linearGradient id="paint0_linear_6_3" x1="81.5" y1="4" x2="81.5" y2="159" gradientUnits="userSpaceOnUse">
<stop offset="0.105" stop-color="#04FC85"/>
<stop offset="0.315" stop-color="#03C96A"/>
<stop offset="0.665" stop-color="#03B05D"/>
<stop offset="0.81" stop-color="#02964F"/>
</linearGradient>
<linearGradient id="paint1_linear_6_3" x1="81.5" y1="14.3333" x2="81.5" y2="148.667" gradientUnits="userSpaceOnUse">
<stop offset="0.105" stop-color="#04FC85"/>
<stop offset="0.315" stop-color="#03C96A"/>
<stop offset="0.665" stop-color="#03B05D"/>
<stop offset="0.81" stop-color="#02964F"/>
</linearGradient>
</defs>
</svg>
